<?xml version="1.0" encoding="UTF-8" standalone="no"?>
<!DOCTYPE svg PUBLIC "-//W3C//DTD SVG 1.1//EN"
 "http://www.w3.org/Graphics/SVG/1.1/DTD/svg11.dtd">
<!-- Generated by graphviz version 12.1.1 (20240910.0053)
 -->
<!-- Title: INFRA Pages: 1 -->
<svg width="878pt" height="404pt"
 viewBox="0.00 0.00 878.17 404.00" xmlns="http://www.w3.org/2000/svg" xmlns:xlink="http://www.w3.org/1999/xlink">
<g id="graph0" class="graph" transform="scale(1 1) rotate(0) translate(4 400)">
<title>INFRA</title>
<polygon fill="white" stroke="none" points="-4,4 -4,-400 874.17,-400 874.17,4 -4,4"/>
<!-- AmplifyLogsBucket -->
<g id="node1" class="node">
<title>AmplifyLogsBucket</title>
<path fill="#fff5cd" stroke="black" stroke-width="2" d="M157.37,-65.45C157.37,-69.07 127.1,-72 89.84,-72 52.58,-72 22.31,-69.07 22.31,-65.45 22.31,-65.45 22.31,-6.55 22.31,-6.55 22.31,-2.93 52.58,0 89.84,0 127.1,0 157.37,-2.93 157.37,-6.55 157.37,-6.55 157.37,-65.45 157.37,-65.45"/>
<path fill="none" stroke="black" stroke-width="2" d="M157.37,-65.45C157.37,-61.84 127.1,-58.91 89.84,-58.91 52.58,-58.91 22.31,-61.84 22.31,-65.45"/>
<text text-anchor="middle" x="89.84" y="-40.2" font-family="Arial" font-size="14.00">AmplifyLogsBucket</text>
<text text-anchor="middle" x="89.84" y="-23.4" font-family="Arial" font-size="14.00">(AWS::S3::Bucket)</text>
</g>
<!-- LogDownloaderRole -->
<g id="node2" class="node">
<title>LogDownloaderRole</title>
<path fill="#e6e6e6" stroke="black" stroke-width="2" d="M149.27,-180C149.27,-180 30.41,-180 30.41,-180 24.41,-180 18.41,-174 18.41,-168 18.41,-168 18.41,-120 18.41,-120 18.41,-114 24.41,-108 30.41,-108 30.41,-108 149.27,-108 149.27,-108 155.27,-108 161.27,-114 161.27,-120 161.27,-120 161.27,-168 161.27,-168 161.27,-174 155.27,-180 149.27,-180"/>
<text text-anchor="middle" x="89.84" y="-148.2" font-family="Arial" font-size="14.00">LogDownloaderRole</text>
<text text-anchor="middle" x="89.84" y="-131.4" font-family="Arial" font-size="14.00">(AWS::IAM::Role)</text>
</g>
<!-- LogDownloaderRole&#45;&gt;AmplifyLogsBucket -->
<g id="edge1" class="edge">
<title>LogDownloaderRole&#45;&gt;AmplifyLogsBucket</title>
<path fill="none" stroke="black" d="M89.84,-107.7C89.84,-99.93 89.84,-91.57 89.84,-83.43"/>
<polygon fill="black" stroke="black" points="93.34,-83.66 89.84,-73.66 86.34,-83.66 93.34,-83.66"/>
</g>
<!-- CrawlerTriggerRole -->
<g id="node3" class="node">
<title>CrawlerTriggerRole</title>
<path fill="#e6e6e6" stroke="black" stroke-width="2" d="M304.52,-180C304.52,-180 191.16,-180 191.16,-180 185.16,-180 179.16,-174 179.16,-168 179.16,-168 179.16,-120 179.16,-120 179.16,-114 185.16,-108 191.16,-108 191.16,-108 304.52,-108 304.52,-108 310.52,-108 316.52,-114 316.52,-120 316.52,-120 316.52,-168 316.52,-168 316.52,-174 310.52,-180 304.52,-180"/>
<text text-anchor="middle" x="247.84" y="-148.2" font-family="Arial" font-size="14.00">CrawlerTriggerRole</text>
<text text-anchor="middle" x="247.84" y="-131.4" font-family="Arial" font-size="14.00">(AWS::IAM::Role)</text>
</g>
<!-- CalculateTimeRangesRole -->
<g id="node4" class="node">
<title>CalculateTimeRangesRole</title>
<path fill="#e6e6e6" stroke="black" stroke-width="2" d="M674.1,-180C674.1,-180 515.58,-180 515.58,-180 509.58,-180 503.58,-174 503.58,-168 503.58,-168 503.58,-120 503.58,-120 503.58,-114 509.58,-108 515.58,-108 515.58,-108 674.1,-108 674.1,-108 680.1,-108 686.1,-114 686.1,-120 686.1,-120 686.1,-168 686.1,-168 686.1,-174 680.1,-180 674.1,-180"/>
<text text-anchor="middle" x="594.84" y="-148.2" font-family="Arial" font-size="14.00">CalculateTimeRangesRole</text>
<text text-anchor="middle" x="594.84" y="-131.4" font-family="Arial" font-size="14.00">(AWS::IAM::Role)</text>
</g>
<!-- LogDownloaderLambda -->
<g id="node5" class="node">
<title>LogDownloaderLambda</title>
<path fill="#b7e0ff" stroke="black" stroke-width="2" d="M166.37,-288C166.37,-288 13.31,-288 13.31,-288 7.31,-288 1.31,-282 1.31,-276 1.31,-276 1.31,-228 1.31,-228 1.31,-222 7.31,-216 13.31,-216 13.31,-216 166.37,-216 166.37,-216 172.37,-216 178.37,-222 178.37,-228 178.37,-228 178.37,-276 178.37,-276 178.37,-282 172.37,-288 166.37,-288"/>
<text text-anchor="middle" x="89.84" y="-256.2" font-family="Arial" font-size="14.00">LogDownloaderLambda</text>
<text text-anchor="middle" x="89.84" y="-239.4" font-family="Arial" font-size="14.00">(AWS::Lambda::Function)</text>
</g>
<!-- LogDownloaderLambda&#45;&gt;AmplifyLogsBucket -->
<g id="edge3" class="edge">
<title>LogDownloaderLambda&#45;&gt;AmplifyLogsBucket</title>
<path fill="none" stroke="black" d="M37.03,-215.68C26.03,-205.56 15.93,-193.55 9.84,-180 -3.28,-150.81 -3.28,-137.19 9.84,-108 14.69,-97.22 22.07,-87.41 30.43,-78.75"/>
<polygon fill="black" stroke="black" points="32.81,-81.32 37.6,-71.87 27.96,-76.27 32.81,-81.32"/>
</g>
<!-- LogDownloaderLambda&#45;&gt;LogDownloaderRole -->
<g id="edge2" class="edge">
<title>LogDownloaderLambda&#45;&gt;LogDownloaderRole</title>
<path fill="none" stroke="black" d="M89.84,-215.7C89.84,-207.93 89.84,-199.57 89.84,-191.43"/>
<polygon fill="black" stroke="black" points="93.34,-191.66 89.84,-181.66 86.34,-191.66 93.34,-191.66"/>
</g>
<!-- CrawlerTriggerLambda -->
<g id="node6" class="node">
<title>CrawlerTriggerLambda</title>
<path fill="#b7e0ff" stroke="black" stroke-width="2" d="M411.37,-288C411.37,-288 258.31,-288 258.31,-288 252.31,-288 246.31,-282 246.31,-276 246.31,-276 246.31,-228 246.31,-228 246.31,-222 252.31,-216 258.31,-216 258.31,-216 411.37,-216 411.37,-216 417.37,-216 423.37,-222 423.37,-228 423.37,-228 423.37,-276 423.37,-276 423.37,-282 417.37,-288 411.37,-288"/>
<text text-anchor="middle" x="334.84" y="-256.2" font-family="Arial" font-size="14.00">CrawlerTriggerLambda</text>
<text text-anchor="middle" x="334.84" y="-239.4" font-family="Arial" font-size="14.00">(AWS::Lambda::Function)</text>
</g>
<!-- CrawlerTriggerLambda&#45;&gt;CrawlerTriggerRole -->
<g id="edge4" class="edge">
<title>CrawlerTriggerLambda&#45;&gt;CrawlerTriggerRole</title>
<path fill="none" stroke="black" d="M305.87,-215.7C298.83,-207.12 291.21,-197.84 283.88,-188.91"/>
<polygon fill="black" stroke="black" points="286.69,-186.82 277.64,-181.31 281.28,-191.26 286.69,-186.82"/>
</g>
<!-- AmplifyLogsCrawler -->
<g id="node9" class="node">
<title>AmplifyLogsCrawler</title>
<path fill="#e6e6e6" stroke="black" stroke-width="2" d="M473.13,-180C473.13,-180 346.55,-180 346.55,-180 340.55,-180 334.55,-174 334.55,-168 334.55,-168 334.55,-120 334.55,-120 334.55,-114 340.55,-108 346.55,-108 346.55,-108 473.13,-108 473.13,-108 479.13,-108 485.13,-114 485.13,-120 485.13,-120 485.13,-168 485.13,-168 485.13,-174 479.13,-180 473.13,-180"/>
<text text-anchor="middle" x="409.84" y="-148.2" font-family="Arial" font-size="14.00">AmplifyLogsCrawler</text>
<text text-anchor="middle" x="409.84" y="-131.4" font-family="Arial" font-size="14.00">(AWS::Glue::Crawler)</text>
</g>
<!-- CrawlerTriggerLambda&#45;&gt;AmplifyLogsCrawler -->
<g id="edge5" class="edge">
<title>CrawlerTriggerLambda&#45;&gt;AmplifyLogsCrawler</title>
<path fill="none" stroke="black" d="M359.81,-215.7C365.76,-207.3 372.18,-198.23 378.38,-189.47"/>
<polygon fill="black" stroke="black" points="381.18,-191.56 384.1,-181.38 375.47,-187.52 381.18,-191.56"/>
</g>
<!-- CalculateTimeRangesLambda -->
<g id="node7" class="node">
<title>CalculateTimeRangesLambda</title>
<path fill="#b7e0ff" stroke="black" stroke-width="2" d="M634,-288C634,-288 453.68,-288 453.68,-288 447.68,-288 441.68,-282 441.68,-276 441.68,-276 441.68,-228 441.68,-228 441.68,-222 447.68,-216 453.68,-216 453.68,-216 634,-216 634,-216 640,-216 646,-222 646,-228 646,-228 646,-276 646,-276 646,-282 640,-288 634,-288"/>
<text text-anchor="middle" x="543.84" y="-256.2" font-family="Arial" font-size="14.00">CalculateTimeRangesLambda</text>
<text text-anchor="middle" x="543.84" y="-239.4" font-family="Arial" font-size="14.00">(AWS::Lambda::Function)</text>
</g>
<!-- CalculateTimeRangesLambda&#45;&gt;CalculateTimeRangesRole -->
<g id="edge6" class="edge">
<title>CalculateTimeRangesLambda&#45;&gt;CalculateTimeRangesRole</title>
<path fill="none" stroke="black" d="M560.82,-215.7C564.74,-207.57 568.95,-198.8 573.04,-190.31"/>
<polygon fill="black" stroke="black" points="576.09,-192.03 577.28,-181.51 569.79,-189 576.09,-192.03"/>
</g>
<!-- AmplifyLogsDatabase -->
<g id="node8" class="node">
<title>AmplifyLogsDatabase</title>
<path fill="#ffcfb3" stroke="black" stroke-width="2" d="M490.98,-65.45C490.98,-69.07 454.61,-72 409.84,-72 365.07,-72 328.7,-69.07 328.7,-65.45 328.7,-65.45 328.7,-6.55 328.7,-6.55 328.7,-2.93 365.07,0 409.84,0 454.61,0 490.98,-2.93 490.98,-6.55 490.98,-6.55 490.98,-65.45 490.98,-65.45"/>
<path fill="none" stroke="black" stroke-width="2" d="M490.98,-65.45C490.98,-61.84 454.61,-58.91 409.84,-58.91 365.07,-58.91 328.7,-61.84 328.7,-65.45"/>
<text text-anchor="middle" x="409.84" y="-40.2" font-family="Arial" font-size="14.00">AmplifyLogsDatabase</text>
<text text-anchor="middle" x="409.84" y="-23.4" font-family="Arial" font-size="14.00">(AWS::Glue::Database)</text>
</g>
<!-- AmplifyLogsCrawler&#45;&gt;AmplifyLogsBucket -->
<g id="edge8" class="edge">
<title>AmplifyLogsCrawler&#45;&gt;AmplifyLogsBucket</title>
<path fill="none" stroke="black" d="M334.43,-111.15C331.54,-110.06 328.67,-109.01 325.84,-108 274.09,-89.49 214.86,-71.68 168.68,-58.53"/>
<polygon fill="black" stroke="black" points="169.86,-55.23 159.29,-55.87 167.96,-61.96 169.86,-55.23"/>
</g>
<!-- AmplifyLogsCrawler&#45;&gt;AmplifyLogsDatabase -->
<g id="edge7" class="edge">
<title>AmplifyLogsCrawler&#45;&gt;AmplifyLogsDatabase</title>
<path fill="none" stroke="black" d="M409.84,-107.7C409.84,-99.93 409.84,-91.57 409.84,-83.43"/>
<polygon fill="black" stroke="black" points="413.34,-83.66 409.84,-73.66 406.34,-83.66 413.34,-83.66"/>
</g>
<!-- AmplifyLogsStateMachineRole -->
<g id="node10" class="node">
<title>AmplifyLogsStateMachineRole</title>
<path fill="#e6e6e6" stroke="black" stroke-width="2" d="M858.17,-288C858.17,-288 675.51,-288 675.51,-288 669.51,-288 663.51,-282 663.51,-276 663.51,-276 663.51,-228 663.51,-228 663.51,-222 669.51,-216 675.51,-216 675.51,-216 858.17,-216 858.17,-216 864.17,-216 870.17,-222 870.17,-228 870.17,-228 870.17,-276 870.17,-276 870.17,-282 864.17,-288 858.17,-288"/>
<text text-anchor="middle" x="766.84" y="-256.2" font-family="Arial" font-size="14.00">AmplifyLogsStateMachineRole</text>
<text text-anchor="middle" x="766.84" y="-239.4" font-family="Arial" font-size="14.00">(AWS::IAM::Role)</text>
</g>
<!-- AmplifyLogsStateMachine -->
<g id="node11" class="node">
<title>AmplifyLogsStateMachine</title>
<ellipse fill="#e6e6e6" stroke="black" stroke-width="2" cx="438.84" cy="-360" rx="151.85" ry="36"/>
<text text-anchor="middle" x="438.84" y="-364.2" font-family="Arial" font-size="14.00">AmplifyLogsStateMachine</text>
<text text-anchor="middle" x="438.84" y="-347.4" font-family="Arial" font-size="14.00">(AWS::StepFunctions::StateMachine)</text>
</g>
<!-- AmplifyLogsStateMachine&#45;&gt;LogDownloaderLambda -->
<g id="edge11" class="edge">
<title>AmplifyLogsStateMachine&#45;&gt;LogDownloaderLambda</title>
<path fill="none" stroke="black" d="M346.69,-331.01C298.24,-316.3 238.81,-298.24 189.31,-283.21"/>
<polygon fill="black" stroke="black" points="190.62,-279.95 180.04,-280.4 188.59,-286.65 190.62,-279.95"/>
</g>
<!-- AmplifyLogsStateMachine&#45;&gt;CrawlerTriggerLambda -->
<g id="edge12" class="edge">
<title>AmplifyLogsStateMachine&#45;&gt;CrawlerTriggerLambda</title>
<path fill="none" stroke="black" d="M405.07,-324.58C396.27,-315.61 386.66,-305.82 377.46,-296.44"/>
<polygon fill="black" stroke="black" points="380.07,-294.1 370.57,-289.41 375.07,-299 380.07,-294.1"/>
</g>
<!-- AmplifyLogsStateMachine&#45;&gt;CalculateTimeRangesLambda -->
<g id="edge10" class="edge">
<title>AmplifyLogsStateMachine&#45;&gt;CalculateTimeRangesLambda</title>
<path fill="none" stroke="black" d="M472.93,-324.58C481.82,-315.61 491.52,-305.82 500.81,-296.44"/>
<polygon fill="black" stroke="black" points="503.22,-298.98 507.78,-289.41 498.25,-294.05 503.22,-298.98"/>
</g>
<!-- AmplifyLogsStateMachine&#45;&gt;AmplifyLogsStateMachineRole -->
<g id="edge9" class="edge">
<title>AmplifyLogsStateMachine&#45;&gt;AmplifyLogsStateMachineRole</title>
<path fill="none" stroke="black" d="M527.17,-330.45C565.66,-318.01 611.28,-303.27 652.33,-290.01"/>
<polygon fill="black" stroke="black" points="653.34,-293.36 661.78,-286.95 651.19,-286.7 653.34,-293.36"/>
</g>
</g>
</svg>
